<svg width="16" height="16" xmlns="http://www.w3.org/2000/svg"><path d="M4 5.627a2 2 0 0 0-2 2v6H1a1 1 0 0 0 0 2h14a1 1 0 0 0 0-2h-1v-2.149a6.701 6.701 0 0 1-3.262.858 6.701 6.701 0 0 1-6.7-6.701 6.701 6.701 0 0 1 0-.008z" fill="#0c0c0d" fill-opacity=".8"/><path d="M10.738.373a5.26 5.26 0 1 0 5.26 5.26 5.266 5.266 0 0 0-5.26-5.26zm0 9.206a3.945 3.945 0 1 1 3.945-3.945 3.95 3.95 0 0 1-3.945 3.945zm2.301-3.945h-2.301V3.332a.329.329 0 0 0-.658 0v2.63a.329.329 0 0 0 .33.33h2.63a.329.329 0 0 0 0-.658z" fill="#0c0c0d" fill-opacity=".8"/></svg>