<svg width="16" height="16" xmlns="http://www.w3.org/2000/svg"><path d="M4 3a2 2 0 0 0-2 2v6H1a1 1 0 0 0 0 2h14a1 1 0 0 0 0-2h-1V9.488a5.092 5.092 0 0 1-2.12.467 5.092 5.092 0 0 1-5.09-5.092A5.092 5.092 0 0 1 7.147 3H4z" fill="#f9f9fa" fill-opacity=".8"/><path d="M11.881.749a4.115 4.115 0 1 0 4.115 4.115A4.12 4.12 0 0 0 11.88.749zm0 7.2a3.086 3.086 0 1 1 3.086-3.085 3.09 3.09 0 0 1-3.086 3.086zm1.8-3.085h-1.8v-1.8a.257.257 0 0 0-.514 0V5.12a.257.257 0 0 0 .257.257h2.057a.257.257 0 0 0 0-.514z" fill="#f9f9fa" fill-opacity=".8"/></svg>