<?xml version="1.0" encoding="UTF-8" standalone="no"?>
<!-- This Source Code Form is subject to the terms of the Mozilla Public
   - License, v. 2.0. If a copy of the MPL was not distributed with this
   - file, You can obtain one at http://mozilla.org/MPL/2.0/. -->

<svg
   xmlns:dc="http://purl.org/dc/elements/1.1/"
   xmlns:cc="http://creativecommons.org/ns#"
   xmlns:rdf="http://www.w3.org/1999/02/22-rdf-syntax-ns#"
   xmlns:svg="http://www.w3.org/2000/svg"
   xmlns="http://www.w3.org/2000/svg"
   xmlns:sodipodi="http://sodipodi.sourceforge.net/DTD/sodipodi-0.dtd"
   xmlns:inkscape="http://www.inkscape.org/namespaces/inkscape"
   width="16"
   height="16"
   viewBox="0 0 16 16.000001"
   version="1.1"
   id="svg4"
   sodipodi:docname="TabHistory-light.svg"
   inkscape:version="0.92.3 (2405546, 2018-03-11)">
  <metadata
     id="metadata10">
    <rdf:RDF>
      <cc:Work
         rdf:about="">
        <dc:format>image/svg+xml</dc:format>
        <dc:type
           rdf:resource="http://purl.org/dc/dcmitype/StillImage" />
        <dc:title></dc:title>
      </cc:Work>
    </rdf:RDF>
  </metadata>
  <defs
     id="defs8" />
  <sodipodi:namedview
     pagecolor="#ffffff"
     bordercolor="#ff0000"
     borderopacity="1"
     objecttolerance="10"
     gridtolerance="10"
     guidetolerance="10"
     inkscape:pageopacity="0"
     inkscape:pageshadow="2"
     inkscape:window-width="1920"
     inkscape:window-height="1016"
     id="namedview6"
     showgrid="false"
     inkscape:object-paths="false"
     inkscape:snap-intersection-paths="false"
     inkscape:snap-center="true"
     inkscape:snap-object-midpoints="true"
     inkscape:object-nodes="false"
     fit-margin-top="0"
     fit-margin-left="0"
     fit-margin-right="0"
     fit-margin-bottom="0"
     inkscape:pagecheckerboard="false"
     inkscape:zoom="45.254834"
     inkscape:cx="4.9106237"
     inkscape:cy="6.8272889"
     inkscape:window-x="0"
     inkscape:window-y="27"
     inkscape:window-maximized="1"
     inkscape:current-layer="svg4"
     borderlayer="true" />
  <path
     d="M 4 3 A 2 2 0 0 0 2 5 L 2 11 L 1 11 A 1 1 0 0 0 1 13 L 15 13 A 1 1 0 0 0 15 11 L 14 11 L 14 9.4882812 A 5.0918312 5.0918312 0 0 1 11.880859 9.9550781 A 5.0918312 5.0918312 0 0 1 6.7890625 4.8632812 A 5.0918312 5.0918312 0 0 1 7.1484375 3 L 4 3 z "
     id="path929"
     style="fill:#f9f9fa;fill-opacity:0.80000001" />
  <path
     id="path817"
     d="M 11.88105,0.74899119 A 4.1148211,4.1148211 0 1 0 15.995872,4.8638125 4.1194503,4.1194503 0 0 0 11.88105,0.74899119 Z m 0,7.20093731 a 3.0861158,3.0861158 0 1 1 3.086116,-3.086116 3.0897163,3.0897163 0 0 1 -3.086116,3.086116 z m 1.800235,-3.086116 H 11.88105 V 3.0635783 a 0.257177,0.257177 0 0 0 -0.514354,0 v 2.0574103 a 0.25717632,0.25717632 0 0 0 0.257179,0.2571762 h 2.05741 a 0.25717634,0.25717634 0 0 0 0,-0.5143523 z"
     inkscape:connector-curvature="0"
     style="fill:#f9f9fa;stroke-width:0.51435262;fill-opacity:0.80000001" />
</svg>
