<?xml version="1.0" encoding="UTF-8" standalone="no"?>
<!-- This Source Code Form is subject to the terms of the Mozilla Public
   - License, v. 2.0. If a copy of the MPL was not distributed with this
   - file, You can obtain one at http://mozilla.org/MPL/2.0/. -->

<svg
   xmlns:dc="http://purl.org/dc/elements/1.1/"
   xmlns:cc="http://creativecommons.org/ns#"
   xmlns:rdf="http://www.w3.org/1999/02/22-rdf-syntax-ns#"
   xmlns:svg="http://www.w3.org/2000/svg"
   xmlns="http://www.w3.org/2000/svg"
   xmlns:sodipodi="http://sodipodi.sourceforge.net/DTD/sodipodi-0.dtd"
   xmlns:inkscape="http://www.inkscape.org/namespaces/inkscape"
   width="160"
   height="160"
   viewBox="0 0 16 16"
   version="1.1"
   id="svg4"
   sodipodi:docname="TabHistory-big.svg"
   inkscape:version="0.92.3 (2405546, 2018-03-11)">
  <metadata
     id="metadata10">
    <rdf:RDF>
      <cc:Work
         rdf:about="">
        <dc:format>image/svg+xml</dc:format>
        <dc:type
           rdf:resource="http://purl.org/dc/dcmitype/StillImage" />
        <dc:title></dc:title>
      </cc:Work>
    </rdf:RDF>
  </metadata>
  <defs
     id="defs8" />
  <sodipodi:namedview
     pagecolor="#ffffff"
     bordercolor="#ff0000"
     borderopacity="1"
     objecttolerance="10"
     gridtolerance="10"
     guidetolerance="10"
     inkscape:pageopacity="0"
     inkscape:pageshadow="2"
     inkscape:window-width="1920"
     inkscape:window-height="1016"
     id="namedview6"
     showgrid="false"
     inkscape:object-paths="false"
     inkscape:snap-intersection-paths="false"
     inkscape:snap-center="true"
     inkscape:snap-object-midpoints="true"
     inkscape:object-nodes="false"
     fit-margin-top="0"
     fit-margin-left="0"
     fit-margin-right="0"
     fit-margin-bottom="0"
     inkscape:pagecheckerboard="false"
     inkscape:zoom="1.4142136"
     inkscape:cx="121.30394"
     inkscape:cy="45.010935"
     inkscape:window-x="0"
     inkscape:window-y="27"
     inkscape:window-maximized="1"
     inkscape:current-layer="svg4"
     borderlayer="true"
     scale-x="0.1" />
  <path
     d="m 4,5.626786 a 2,2 0 0 0 -2,2 v 6 H 1 a 1,1 0 0 0 0,2 h 14 a 1,1 0 0 0 0,-2 h -1 v -2.148438 a 6.7012768,6.7012768 0 0 1 -3.261719,0.857422 6.7012768,6.7012768 0 0 1 -6.7011716,-6.701171 6.7012768,6.7012768 0 0 1 0,-0.0078 z"
     id="path897"
     style="fill:#000000;fill-opacity:1"
     inkscape:connector-curvature="0" />
  <path
     id="path817"
     d="M 10.73786,0.373214 A 5.260574,5.260574 0 1 0 15.998435,5.633788 5.2664921,5.2664921 0 0 0 10.73786,0.373214 Z m 0,9.206005 A 3.9454304,3.9454304 0 1 1 14.683291,5.633788 3.9500335,3.9500335 0 0 1 10.73786,9.579219 Z M 13.039363,5.633788 H 10.73786 V 3.332287 a 0.3287868,0.3287868 0 0 0 -0.657573,0 v 2.630287 a 0.32878587,0.32878587 0 0 0 0.32879,0.328785 h 2.630286 a 0.3287859,0.3287859 0 0 0 0,-0.657571 z"
     inkscape:connector-curvature="0"
     style="fill:#000000;fill-opacity:1;stroke-width:0.65757173" />
</svg>
